<svg xmlns:rdf="http://www.w3.org/1999/02/22-rdf-syntax-ns#" xmlns="http://www.w3.org/2000/svg" height="126.04" viewBox="0 0 945.9668 126.03516" width="945.97" version="1.1" xmlns:cc="http://creativecommons.org/ns#" xmlns:dc="http://purl.org/dc/elements/1.1/">
<g transform="translate(-224.72 -287.96)">
<g fill="#fff">
<path d="m270.69 288.05q26.367 0 33.223 16.436 1.9336 4.043 1.9336 5.3613h-11.074v3.3398h11.865v-0.17578q0-0.87891-0.79101-3.1641h20.303v3.3398h-19.248v0.26367q1.4941 7.0312 2.1094 15.205 0 0.43945-23.115 1.6699v-0.17578q0-21.006-14.414-21.006h-2.4609q-10.811 0-13.184 9.1406-1.9336 7.7344-1.9336 20.303v17.139l-0.17578 2.5488h-7.998v4.043h7.998v30.498h33.926v-31.729h19.424v31.729h-10.811v19.512h-22.588v1.6699h-17.578v-1.6699h-17.842v-9.7559h11.865v-4.2188h-17.754v-14.414h-7.6465v-17.754h4.043q-0.26367-11.074-0.26367-17.402 0-28.74 2.8125-36.211 2.5488-8.6133 8.4375-14.854 10.459-9.668 30.938-9.668zm-15.293 98.438h1.0547v4.3945h2.5488v1.3184h-3.6035q-0.35157 0-0.35157-0.43945v-4.834q0-0.43945 0.35157-0.43945zm26.455 0h1.3184q1.0547 0.87891 1.0547 1.6699 0.17578 0 1.4941-1.6699h1.0547v0.43945q-1.4941 1.9336-1.4941 2.7246 0.26367 0 1.6699 2.2852v0.26367h-1.2305l-1.4941-1.6699q-0.79101 1.4941-1.2305 1.6699h-1.3184q0.43946-0.8789 1.9336-2.9883l-1.7578-2.5488v-0.17578zm17.402 7.6465q2.1094 0.52734 2.1094 1.2305v0.87891h-0.8789l-0.79102-0.87891h-0.8789q-0.43946 0.0879-0.43946 0.43946v0.43945q3.252 0.61524 3.252 1.4062v0.70313q0 1.6699-1.9336 1.6699h-0.8789q-1.1426 0-1.8457-1.2305v-0.87891h1.2305q0 1.0547 1.2305 1.0547h0.26367q0.26367 0 0.61524-0.61523 0-0.26368-2.9883-1.4941l-0.17579-0.43946v-1.0547q0-0.70312 2.1094-1.2305z"/>
<path d="m319.38 288.05h24.961v50.186h25.225v-50.186h21.182v71.543h-8.7012v3.1641h8.7012v51.24h-20.742q-0.43945 0-0.43945-0.43946v-54.404h-25.225v54.404q0 0.43946-0.43945 0.43946h-20.918v-65.654h-3.6035v-60.293zm71.367 71.543h11.162v3.1641h-11.162v-3.1641z"/>
<path d="m440.94 288.14h21.182q0.43945 1.8457 20.654 68.73h3.7793v41.396h-8.7012v3.252h8.7012v8.877h-23.379v-25.488h-28.652v10.811h-11.602v18.281h-21.27v-1.2305h1.6699v-17.051h8.7012v-35.244h7.207l21.709-72.334zm9.9316 35.42v0.26368q-2.7246 14.941-10.547 47.285h19.688v-14.238h-1.6699q-7.0312-30.586-7.0312-33.311h-0.43945zm-37.529 30.586h1.9336q0 0.79102 0.79102 1.3184 0.0879-0.79101 0.87891-1.3184h1.4941v0.17578q-1.4941 2.1094-1.4941 2.373 0.35156 0.79102 1.6699 2.5488v0.43945h-0.79102q-1.2305 0-1.7578-1.7578-1.3184 1.7578-1.4941 1.7578h-1.0547q-0.43945 0-0.43945-0.43945 0.26367 0 1.7578-2.373v-0.35156q-1.4941-2.1973-1.4941-2.373zm-17.842 2.5488h16.523v3.7793h-16.523v-3.7793zm91.67 2.7246h4.4824v1.0547l-2.7246 3.4277h2.5488q0.35156 0.0879 0.35156 0.43945v0.43946q0 0.43945-0.35156 0.43945h-4.4824v-1.0547l2.7246-3.4277h-2.5488v-1.3184zm-32.432 5.5371h1.2305v2.1094l2.373-2.1094h1.2305v0.26367l-1.8457 2.1094q2.1094 2.9883 2.1094 3.3398h-1.3184q-0.17578 0-1.9336-2.2852-0.26367 0-0.61524 0.61524v1.6699h-1.2305v-5.7129zm32.871 1.9336h2.5488q1.9336 0.26367 1.9336 1.9336l-0.61523 1.0547q0.61523 0.70313 0.61523 2.5488v0.17578h-1.3184q-0.17578-2.1094-0.61523-2.1094h-1.4941v2.1094h-1.0547q-0.43945 0-0.43945-0.43945v-4.834q0.0879-0.43946 0.43945-0.43946zm1.0547 1.2305v1.3184h1.4941q0.43945 0 0.43945-0.43945v-0.87891h-1.9336zm-1.4941 6.1523h4.043q0.43946 0.0879 0.43946 0.43946v0.43945q0 0.43945-0.43946 0.43945h-1.2305v4.4824h-1.4942v-4.4824h-1.3184q-0.43946 0-0.43946-0.43945v-0.43945q0.0879-0.43946 0.43946-0.43946zm-0.43946 7.4707h1.0547q0.61523 0 1.3184 3.6035h0.17578q1.0547-3.1641 1.0547-3.6035h1.4941q-1.6699 5.7129-2.1094 5.7129h-1.2305l-1.7578-5.7129zm-45.791 4.834v1.1426q0 0.35156-3.4277 1.4062v0.26367l3.4277 1.2305v1.3184l-5.3613-1.9336v-1.4941l5.3613-1.9336zm-32.959 2.5488h0.70313q0.70312 0 2.2852 5.8008h-1.2305q0-0.17578-0.43945-1.3184h-1.9336q-0.17578 1.3184-0.61524 1.3184h-1.0547q1.8457-5.8008 2.2852-5.8008zm81.562 0h0.61524q2.1094 0 2.5488 2.9883-0.61523 2.9883-2.7246 2.9883-2.9883-0.52734-2.9883-2.9883 0.43946-2.9883 2.5488-2.9883zm-1.0547 2.8125v0.17578q0 1.1426 1.0547 1.7578h0.61524q1.0547-0.61523 1.0547-1.7578v-0.17578q-0.17578-1.6699-1.4941-1.6699-1.2305 0.43945-1.2305 1.6699zm-80.244-0.87891q-0.43945 1.4062-0.43945 1.4941h1.0547l-0.43945-1.4941h-0.17579zm54.932 20.83h28.301v2.1094h-28.301v-2.1094z"/>
<path d="m496.75 287.96h24.785v23.73q0 11.865-0.43945 25.576v0.26367h0.26367q3.0762-5.8008 16.699-29.883 7.0312-12.217 7.0312-18.457v-1.2305h25.4v0.61524q0 12.129-9.9316 26.455l-15.117 21.885 14.854 31.553h13.359v3.7793h-15.029v0.26367q3.6035 7.7344 4.6582 9.3164h2.7246v11.426h3.8672v20.566q-6.5039 0.17578-9.5801 0.17578h-6.1524q-3.252 0-8.877-0.17578v-13.799h-5.5371v-18.193h-3.1641l-3.3398-9.5801h25.137v-3.7793h-23.027q0-0.43945-4.043-12.744h-0.26367q-2.1094 4.043-8.4375 12.744h10.635v3.7793h-11.689v6.1523h-1.4941v28.828h1.4941v6.3281q0 0.43946-0.43945 0.43946h-23.906q-0.43946 0-0.43946-0.43946v-9.9316h11.25v-4.2188h-11.25v-111.45zm64.16 74.092h1.3184q0.52734 0 1.2305 3.4277 0.35156 0 1.3184-3.4277h1.8457v5.3613q0 0.43945-0.35156 0.43945h-0.87891v-3.4277h-0.17578q0 0.35157-1.0547 3.4277h-0.70312q-0.61524 0-1.2305-2.9883h-0.26367v2.5488q0 0.43945-0.35157 0.43945h-0.70312q-0.35156 0-0.35156-0.43945v-4.9219q0-0.43945 0.35156-0.43945zm-53.965 6.416v3.7793h14.414q0-0.70312 1.0547-3.7793h-15.469zm33.047 32.432h1.2305q0.26367 0 1.3184 1.4062 0.79101-1.4062 1.0547-1.4062h1.2305v0.17579l-1.6699 2.5488q0.43946 0.0879 1.9336 2.7246h-1.7578l-0.79101-1.6699q-1.3184 1.6699-1.4941 1.6699h-1.3184q1.4941-2.6367 1.9336-2.7246l-1.6699-2.5488v-0.17579z"/>
<path d="m578.75 288.32h43.066q21.621 0 27.949 15.205 2.7246 7.8223 2.7246 17.93v5.2734q0 18.281-7.998 27.861h-9.1406v4.6582h13.975v30.059h-8.2617v4.6582h12.48v17.754h-26.191v-28.389h-10.107v-18.369h-17.578v31.113h3.7793v17.93h-24.258q-0.43945 0-0.43945-0.43946v-50.449h10.811v-3.6035h-10.811v-71.191zm24.697 20.479v35.508h5.9766q13.447 0 15.557-2.5488 2.1973-1.4062 3.4277-5.7129h9.3164v-4.4824h-8.4375v0.43945q-0.70313 4.043-1.0547 4.043h-12.041v-4.4824h12.656q0.43946 0 0.43946-0.35156 0.17578-5.4492 0.17578-6.1524 0-11.777-4.043-14.414-3.1641-1.8457-11.602-1.8457h-10.371zm-2.7246 57.217h1.0547q0.87891 0.43945 0.87891 1.3184 0.35156 0 0.79101-1.3184h1.3184v0.26367l-1.3184 1.8457q0 0.17578 1.4941 2.373v0.17578h-1.0547q-0.17579 0-1.2305-1.4941-0.61524 1.4062-1.0547 1.4941h-1.0547q1.4062-2.1973 1.4062-2.5488l-1.2305-2.1094zm0.17578 6.3281h3.8672v0.70313l-2.373 2.9004h2.373v1.0547h-4.043v-0.79101l2.2852-2.9883h-2.1094v-0.87891z"/>
<path d="m663.65 288.05h23.73q0.35156 0.0879 0.35156 0.43945v61.172q0 0.43945-0.35156 0.43945h-2.8125v63.457q0 0.43946-0.43945 0.43946h-20.479q-0.43945 0-0.43945-0.43946v-64.951h-6.3281q-0.43945 0-0.43945-0.43945v-2.7246q0.0879-0.43945 0.43945-0.43945h6.3281v-56.514q0.0879-0.43945 0.43945-0.43945zm-0.26367 56.953v3.6035h12.129v-3.6035h-12.129z"/>
<path d="m739.41 288.32h43.066q21.621 0 27.949 15.205 2.7246 7.8223 2.7246 17.93v5.2734q0 18.281-7.998 27.861h-9.1406v4.6582h13.975v30.059h-8.2617v4.6582h12.48v17.754h-26.191v-28.389h-10.107v-18.369h-17.578v31.113h3.7793v17.93h-24.258q-0.43945 0-0.43945-0.43946v-50.449h10.811v-3.6035h-10.811v-71.191zm24.697 20.479v35.508h5.9766q13.447 0 15.557-2.5488 2.1973-1.4062 3.4277-5.7129h9.3164v-4.4824h-8.4375v0.43945q-0.70313 4.043-1.0547 4.043h-12.041v-4.4824h12.656q0.43945 0 0.43945-0.35156 0.17578-5.4492 0.17578-6.1524 0-11.777-4.043-14.414-3.1641-1.8457-11.602-1.8457h-10.371zm-2.7246 57.217h1.0547q0.87891 0.43945 0.87891 1.3184 0.35156 0 0.79101-1.3184h1.3184v0.26367l-1.3184 1.8457q0 0.17578 1.4942 2.373v0.17578h-1.0547q-0.17578 0-1.2305-1.4941-0.61524 1.4062-1.0547 1.4941h-1.0547q1.4062-2.1973 1.4062-2.5488l-1.2305-2.1094zm0.17578 6.3281h3.8672v0.70313l-2.373 2.9004h2.373v1.0547h-4.043v-0.79101l2.2852-2.9883h-2.1094v-0.87891z"/>
<path d="m828.09 288.14h62.051v20.566q0 0.43945-0.43945 0.43945h-36.826v27.334h33.047v0.17578q0 1.2305-0.43945 13.359-0.17578 0-0.17578 0.26367h1.4941v6.3281h-28.652v25.84h-7.6465v2.5488h7.6465v7.8223h32.432v2.9883h-2.5488v15.469h-38.76v2.7246h-18.457v-45.088h-2.7246v-15.908h-20.127v-2.7246h20.127v-62.139zm0.17578 62.139v2.7246h10.371v-2.7246h-10.371zm31.816 36.211h1.4941v2.1094h0.17578q0-0.61524 1.9336-2.1094h1.4941l-2.1094 2.2852 2.2852 3.4277h-1.4941q-1.6699-2.373-1.8457-2.373-0.43945 0.0879-0.43945 0.43945v1.9336h-1.4941v-5.7129zm7.3828 0h2.9883q1.4062 0 1.9336 1.6699 0 0.26368-0.8789 1.4941 0.61523 0 0.8789 2.5488h-1.0547q-0.43946 0-0.70313-2.1094h-1.6699v2.1094h-1.4941v-5.7129zm9.5801 0h0.79101q1.9336 0 2.373 2.5488v0.79102q0 0.70312-0.61523 1.4941v0.26367q0.61523 0 0.61523 0.35156t-0.61523 0.70313q-0.35157 0-0.70313-0.70313l-1.0547 0.26367h-0.79101q-2.1094 0-2.373-3.1641 0.61524-2.5488 2.373-2.5488zm-0.87891 2.5488v0.61523q0 1.4941 1.4941 1.4941h0.17578v-0.26367h-0.35156v-0.17578q0-0.35156 0.61524-0.61523l0.61523 0.35156q0-0.0879 0.17578-1.2305-0.0879-1.6699-1.6699-1.6699-1.0547 0.26367-1.0547 1.4941zm-7.207-1.3184v1.3184h1.4941q0.43945 0 0.43945-0.43945v-0.43946q0-0.43945-0.43945-0.43945h-1.4941zm20.391 9.3164h1.2305v0.26367q0 3.7793-0.61523 3.7793t-0.61523-2.7246v-1.3184zm0 4.2188h1.2305v1.3184h-1.2305v-1.3184z"/>
<path d="m901.39 288.14h38.232q23.994 0 33.047 16.26 7.5586 12.744 7.5586 42.1h3.7793v30.059h-37.178v-3.3398h11.602v-26.719h-3.3398v-10.986q0-18.545-8.2617-23.643-4.9219-2.8125-15.645-2.8125h-5.0976v36.826h3.4277v30.674h-25.225v-28.301h-2.9004v-60.117zm54.316 79.102h1.2305v3.1641h0.70312v1.0547h-0.70312v1.3184h-1.2305v-1.3184h-2.2852v-0.79101q2.2852-3.1641 2.2852-3.4277zm-1.0547 3.1641h1.0547v-1.2305q-0.26367 0-1.0547 1.2305zm-23.906-0.17578h1.2305q0.26367 0 1.3184 1.4941 0.8789-1.0547 0.8789-1.4941h1.4062v0.17578q-1.4062 2.0215-1.4062 2.5488l1.6699 2.7246h-1.6699q0-0.70312-1.0547-1.6699-0.79102 1.582-1.3184 1.6699h-1.2305q1.4062-2.5488 1.8457-2.7246l-1.68-2.72zm-40.605 6.3281h11.426v4.043h27.949v8.2617h17.314v-8.2617h37.178v8.2617h-25.576v22.412h-28.916v2.7246h-27.773q-0.35156 0-0.35156-0.43946v-32.959h-11.25v-4.043zm39.375 0h17.314v4.043h-17.314v-4.043zm54.492 0h24.785v4.043h-24.785v-4.043zm-22.588 13.096h1.4941q1.4941 4.1309 1.8457 5.7129h-1.0547q-0.35156 0-0.61523-1.2305h-1.6699q-0.43946 0-0.61524 1.2305h-1.3184v-0.17578q0-0.17578 1.9336-5.5371zm4.834 0h1.3184l1.0547 3.6035h0.17578q0-0.35156 1.0547-3.6035h1.3184q0 0.70313-1.7578 5.7129h-1.2305q-0.52735 0-1.9336-5.7129zm7.0312 0h1.4941v5.7129h-1.4941v-5.7129zm3.9551 0h2.373q2.7246 0 2.7246 3.1641 0 2.1973-2.7246 2.5488h-2.373v-5.7129zm1.4941 1.3184v3.1641h1.3184q0.26367 0 0.79102-0.87891v-1.4941q0-0.26367-0.79102-0.79102h-1.3184zm-16.699 0.43946q0 0.26367-0.43945 1.6699h1.0547q-0.35157-1.4062-0.35157-1.6699h-0.26367z"/>
<path d="m995.61 288.14h38.232q23.994 0 33.047 16.26 7.5586 12.744 7.5586 42.1h3.7793v30.059h-37.178v-3.3398h11.602v-26.719h-3.3398v-10.986q0-18.545-8.2618-23.643-4.9218-2.8125-15.644-2.8125h-5.0977v36.826h3.4278v30.674h-25.225v-28.301h-2.9004v-60.117zm54.316 79.102h1.2305v3.1641h0.7031v1.0547h-0.7031v1.3184h-1.2305v-1.3184h-2.2852v-0.79101q2.2852-3.1641 2.2852-3.4277zm-1.0547 3.1641h1.0547v-1.2305q-0.2637 0-1.0547 1.2305zm-23.906-0.17578h1.2304q0.2637 0 1.3184 1.4941 0.8789-1.0547 0.8789-1.4941h1.4062v0.17578q-1.4062 2.0215-1.4062 2.5488l1.6699 2.7246h-1.6699q0-0.70312-1.0547-1.6699-0.791 1.582-1.3184 1.6699h-1.2304q1.4062-2.5488 1.8457-2.7246l-1.6699-2.7246zm-40.606 6.3281h11.426v4.043h27.949v8.2617h17.314v-8.2617h37.178v8.2617h-25.576v22.412h-28.916v2.7246h-27.773q-0.35156 0-0.35156-0.43946v-32.959h-11.25v-4.043zm39.375 0h17.314v4.043h-17.314v-4.043zm54.492 0h24.785v4.043h-24.785v-4.043zm-22.588 13.096h1.4941q1.4942 4.1309 1.8457 5.7129h-1.0547q-0.3515 0-0.6152-1.2305h-1.6699q-0.4395 0-0.6153 1.2305h-1.3183v-0.17578q0-0.17578 1.9336-5.5371zm4.834 0h1.3183l1.0547 3.6035h0.1758q0-0.35156 1.0547-3.6035h1.3183q0 0.70313-1.7578 5.7129h-1.2304q-0.5274 0-1.9336-5.7129zm7.0312 0h1.4942v5.7129h-1.4942v-5.7129zm3.9551 0h2.373q2.7246 0 2.7246 3.1641 0 2.1973-2.7246 2.5488h-2.373v-5.7129zm1.4941 1.3184v3.1641h1.3184q0.2637 0 0.791-0.87891v-1.4941q0-0.26367-0.791-0.79102h-1.3184zm-16.699 0.43946q0 0.26367-0.4394 1.6699h1.0546q-0.3515-1.4062-0.3515-1.6699h-0.2637z"/>
<path d="m1091.1 287.96h24.785q0 18.193 6.3281 30.938 6.8555 16.523 9.3164 26.279v0.17578h0.2637q3.164-11.602 13.096-35.947 2.5488-11.602 2.5488-21.445h23.291q-2.1094 18.984-5.2734 27.949l-13.975 31.816h-8.5254v21.797h-12.92v4.2188h12.92v40.254h-24.082q-0.4394 0-0.4394-0.43946v-19.688h-3.7793v-34.893h7.1191v-3.252h-7.8222q-0.9668-1.1426-14.59-32.783-5.7129-12.656-5.7129-15.293h10.371v-4.3945h-11.25q-1.6699-13.975-1.6699-15.293zm-15.029 15.293h16.699l0.7031 4.3945h-17.402v-4.3945zm67.94 45.264h3.8671v0.87891l-2.373 2.9883h2.373v0.61523q0 0.43946-0.4394 0.43946h-3.1641q-0.4394 0-0.4394-0.43946v-0.43945l2.373-2.9004h-2.1972v-1.1426zm-1.0547 21.006h10.371v4.2188h-10.371v-4.2188z"/>
</g>
</g>
</svg>
